<svg width="16" height="16" viewBox="0 0 16 16" fill="none" xmlns="http://www.w3.org/2000/svg">
<g clip-path="url(#clip0_101_733)">
<path d="M11.3334 2C11.5085 1.8249 11.7163 1.68601 11.9451 1.59125C12.1739 1.49649 12.4191 1.44772 12.6667 1.44772C12.9143 1.44772 13.1595 1.49649 13.3883 1.59125C13.6171 1.68601 13.8249 1.8249 14 2C14.1751 2.1751 14.314 2.38297 14.4088 2.61174C14.5036 2.84051 14.5523 3.08571 14.5523 3.33333C14.5523 3.58096 14.5036 3.82615 14.4088 4.05493C14.314 4.2837 14.1751 4.49157 14 4.66667L5.00004 13.6667L1.33337 14.6667L2.33337 11L11.3334 2Z" stroke="#C7C2C2" stroke-width="1.5" stroke-linecap="round" stroke-linejoin="round"/>
</g>
<defs>
<clipPath id="clip0_101_733">
<rect width="16" height="16" fill="white"/>
</clipPath>
</defs>
</svg>
