<svg width="20" height="20" viewBox="0 0 20 20" fill="none" xmlns="http://www.w3.org/2000/svg">
<path fill-rule="evenodd" clip-rule="evenodd" d="M11.6667 2.50002C11.6667 2.03978 12.0398 1.66669 12.5 1.66669H15.8333C16.4964 1.66669 17.1323 1.93008 17.6011 2.39892C18.0699 2.86776 18.3333 3.50365 18.3333 4.16669V15.8334C18.3333 16.4964 18.0699 17.1323 17.6011 17.6011C17.1323 18.07 16.4964 18.3334 15.8333 18.3334H12.5C12.0398 18.3334 11.6667 17.9603 11.6667 17.5C11.6667 17.0398 12.0398 16.6667 12.5 16.6667H15.8333C16.0544 16.6667 16.2663 16.5789 16.4226 16.4226C16.5789 16.2663 16.6667 16.0544 16.6667 15.8334V4.16669C16.6667 3.94567 16.5789 3.73371 16.4226 3.57743C16.2663 3.42115 16.0544 3.33335 15.8333 3.33335H12.5C12.0398 3.33335 11.6667 2.96026 11.6667 2.50002Z" fill="#171616"/>
<path fill-rule="evenodd" clip-rule="evenodd" d="M7.74408 5.24408C8.06951 4.91864 8.59715 4.91864 8.92259 5.24408L13.0893 9.41074C13.4147 9.73618 13.4147 10.2638 13.0893 10.5893L8.92259 14.7559C8.59715 15.0814 8.06951 15.0814 7.74408 14.7559C7.41864 14.4305 7.41864 13.9028 7.74408 13.5774L11.3215 10L7.74408 6.42259C7.41864 6.09715 7.41864 5.56951 7.74408 5.24408Z" fill="#171616"/>
<path fill-rule="evenodd" clip-rule="evenodd" d="M1.66667 10C1.66667 9.53978 2.03977 9.16669 2.50001 9.16669H12.5C12.9602 9.16669 13.3333 9.53978 13.3333 10C13.3333 10.4603 12.9602 10.8334 12.5 10.8334H2.50001C2.03977 10.8334 1.66667 10.4603 1.66667 10Z" fill="#171616"/>
</svg>
