<svg width="134" height="38" viewBox="0 0 134 38" fill="none" xmlns="http://www.w3.org/2000/svg">
<path d="M112.668 16.8138H110.076V0H115.236V12.1968H128.766V4.617H115.236V0H128.766L133.333 4.617V12.1968L128.766 16.8138H112.668Z" fill="white"/>
<path d="M86.7761 0H94.6521V4.617H91.319L86.7761 0ZM99.1951 12.1968H107.071L104.059 16.8138H86.7761V12.1968H94.6521V4.617V0L99.1951 4.617V12.1968Z" fill="#C6FF00"/>
<path d="M85.5256 4.617L85.5503 16.8138H69.3537L64.8108 12.1968V0H81.0073L85.5256 4.617ZM81.0073 12.1968V4.617H69.3537V12.1968H81.0073Z" fill="#C6FF00"/>
<path d="M61.8051 0L57.2375 4.617H43.0902V0H61.8051ZM43.0902 4.617V5.90087H59.904L56.4721 10.5426H43.0902V19.2581L38.5473 14.6411L38.5473 4.617L43.0902 0V4.617Z" fill="white"/>
<path d="M40.3267 0.123444H21.1921V4.64991H26.5416V14.5258L31.6853 19.2581V4.64991H35.8003L40.3267 0.123444Z" fill="white"/>
<path d="M0 0.123444H19.5461L13.9909 4.64991H4.52647V12.2626H20.9864V16.7891H4.52647L0 12.2626V0.123444Z" fill="white"/>
<path d="M1.62 26.356V27.892H3.636V28.816H1.62V31.588C1.62 32.084 1.764 32.456 2.052 32.704C2.348 32.944 2.732 33.064 3.204 33.064H3.804V34H3.06C2.316 34 1.724 33.8 1.284 33.4C0.844 32.992 0.624 32.416 0.624 31.672V26.356H1.62ZM8.59841 28.852H7.72241C7.27441 28.852 6.90641 29.004 6.61841 29.308C6.33041 29.604 6.18641 29.984 6.18641 30.448V34H5.19041V30.34C5.19041 29.58 5.41441 28.984 5.86241 28.552C6.31041 28.112 6.92241 27.892 7.69841 27.892H8.59841V28.852ZM11.5276 34.156C10.8396 34.156 10.2996 33.98 9.90756 33.628C9.52356 33.268 9.33156 32.8 9.33156 32.224C9.33156 31.64 9.52356 31.172 9.90756 30.82C10.2996 30.46 10.8396 30.28 11.5276 30.28H13.6396V29.944C13.6396 29.568 13.5156 29.26 13.2676 29.02C13.0276 28.78 12.6876 28.66 12.2476 28.66H11.9716C11.5796 28.66 11.2596 28.752 11.0116 28.936C10.7636 29.12 10.6076 29.364 10.5436 29.668H9.53556C9.63956 29.044 9.90756 28.568 10.3396 28.24C10.7716 27.912 11.3276 27.748 12.0076 27.748H12.1756C12.9836 27.748 13.5916 27.96 13.9996 28.384C14.4076 28.8 14.6116 29.388 14.6116 30.148V32.356C14.6116 32.636 14.6556 32.836 14.7436 32.956C14.8316 33.068 14.9756 33.124 15.1756 33.124H15.4756V34H14.9716C14.6836 34 14.4476 33.94 14.2636 33.82C14.0876 33.692 13.9596 33.52 13.8796 33.304C13.7116 33.584 13.4796 33.796 13.1836 33.94C12.8956 34.084 12.5676 34.156 12.1996 34.156H11.5276ZM12.0916 33.268C12.5476 33.268 12.9196 33.14 13.2076 32.884C13.4956 32.628 13.6396 32.268 13.6396 31.804V31.144H11.6716C11.2476 31.144 10.9196 31.244 10.6876 31.444C10.4556 31.636 10.3396 31.888 10.3396 32.2C10.3396 32.512 10.4556 32.768 10.6876 32.968C10.9196 33.168 11.2476 33.268 11.6716 33.268H12.0916ZM16.7153 27.892H17.7113V34H16.7153V27.892ZM16.7033 25.72H17.7113V26.992H16.7033V25.72ZM19.5107 30.22C19.5107 29.444 19.7267 28.84 20.1587 28.408C20.5907 27.968 21.1947 27.748 21.9707 27.748H22.3427C23.1187 27.748 23.7227 27.968 24.1547 28.408C24.5947 28.84 24.8147 29.444 24.8147 30.22V34H23.8187V30.244C23.8187 29.772 23.6827 29.4 23.4107 29.128C23.1467 28.856 22.7787 28.72 22.3067 28.72H22.0067C21.5427 28.72 21.1747 28.856 20.9027 29.128C20.6387 29.4 20.5067 29.772 20.5067 30.244V34H19.5107V30.22ZM26.5512 27.892H27.5472V34H26.5512V27.892ZM26.5392 25.72H27.5472V26.992H26.5392V25.72ZM29.3467 30.22C29.3467 29.444 29.5627 28.84 29.9947 28.408C30.4267 27.968 31.0307 27.748 31.8067 27.748H32.1787C32.9547 27.748 33.5587 27.968 33.9907 28.408C34.4307 28.84 34.6507 29.444 34.6507 30.22V34H33.6547V30.244C33.6547 29.772 33.5187 29.4 33.2467 29.128C32.9827 28.856 32.6147 28.72 32.1427 28.72H31.8427C31.3787 28.72 31.0107 28.856 30.7387 29.128C30.4747 29.4 30.3427 29.772 30.3427 30.244V34H29.3467V30.22ZM37.8977 36.604C37.3537 36.604 36.9057 36.44 36.5537 36.112C36.2017 35.792 36.0257 35.376 36.0257 34.864V34.636H37.0217V34.816C37.0217 35.064 37.1137 35.272 37.2977 35.44C37.4897 35.608 37.7297 35.692 38.0177 35.692H39.8777C40.1817 35.692 40.4257 35.612 40.6097 35.452C40.7937 35.292 40.8857 35.084 40.8857 34.828C40.8857 34.572 40.7937 34.364 40.6097 34.204C40.4257 34.044 40.1817 33.964 39.8777 33.964H37.5257C37.1977 33.964 36.9297 33.868 36.7217 33.676C36.5217 33.484 36.4217 33.252 36.4217 32.98C36.4217 32.684 36.5377 32.42 36.7697 32.188L37.1897 31.768C36.5177 31.408 36.1817 30.792 36.1817 29.92C36.1817 29.24 36.3937 28.708 36.8177 28.324C37.2417 27.94 37.8577 27.748 38.6657 27.748H39.2057C39.8697 27.748 40.4057 27.88 40.8137 28.144L41.5697 27.412L42.1697 28.036L41.4257 28.768C41.6097 29.088 41.7017 29.472 41.7017 29.92C41.7017 30.6 41.4897 31.132 41.0657 31.516C40.6417 31.892 40.0217 32.08 39.2057 32.08H38.6657C38.4737 32.08 38.2857 32.068 38.1017 32.044L37.6817 32.452C37.5857 32.548 37.5377 32.648 37.5377 32.752C37.5377 32.84 37.5697 32.912 37.6337 32.968C37.6977 33.016 37.7897 33.04 37.9097 33.04H40.0217C40.5657 33.04 41.0097 33.208 41.3537 33.544C41.7057 33.88 41.8817 34.308 41.8817 34.828C41.8817 35.348 41.7057 35.772 41.3537 36.1C41.0097 36.436 40.5657 36.604 40.0217 36.604H37.8977ZM39.2177 31.168C39.7057 31.168 40.0737 31.052 40.3217 30.82C40.5777 30.588 40.7057 30.284 40.7057 29.908C40.7057 29.532 40.5777 29.232 40.3217 29.008C40.0657 28.776 39.6977 28.66 39.2177 28.66H38.6657C38.1777 28.66 37.8057 28.776 37.5497 29.008C37.3017 29.232 37.1777 29.532 37.1777 29.908C37.1777 30.292 37.3017 30.6 37.5497 30.832C37.8057 31.056 38.1777 31.168 38.6657 31.168H39.2177ZM49.1049 34.144C48.4409 34.144 47.9289 33.94 47.5689 33.532L47.5809 33.868V36.484H46.5849V30.256C46.5849 29.464 46.8009 28.848 47.2329 28.408C47.6729 27.96 48.2969 27.736 49.1049 27.736H49.5129C50.3049 27.736 50.9249 27.96 51.3729 28.408C51.8209 28.856 52.0449 29.472 52.0449 30.256V31.624C52.0449 32.408 51.8289 33.024 51.3969 33.472C50.9649 33.92 50.3849 34.144 49.6569 34.144H49.1049ZM49.5009 33.184C49.9809 33.184 50.3569 33.044 50.6289 32.764C50.9009 32.484 51.0369 32.1 51.0369 31.612V30.28C51.0369 29.792 50.9009 29.408 50.6289 29.128C50.3569 28.848 49.9809 28.708 49.5009 28.708H49.1169C48.6289 28.708 48.2489 28.848 47.9769 29.128C47.7129 29.4 47.5809 29.784 47.5809 30.28V31.612C47.5809 32.1 47.7169 32.484 47.9889 32.764C48.2609 33.044 48.6369 33.184 49.1169 33.184H49.5009ZM54.7026 25.504V31.996C54.7026 32.7 55.0866 33.052 55.8546 33.052H56.3826V34H55.6506C55.0106 34 54.5266 33.836 54.1986 33.508C53.8706 33.172 53.7066 32.652 53.7066 31.948V25.504H54.7026ZM59.5393 34.156C58.8513 34.156 58.3113 33.98 57.9193 33.628C57.5353 33.268 57.3433 32.8 57.3433 32.224C57.3433 31.64 57.5353 31.172 57.9193 30.82C58.3113 30.46 58.8513 30.28 59.5393 30.28H61.6513V29.944C61.6513 29.568 61.5273 29.26 61.2793 29.02C61.0393 28.78 60.6993 28.66 60.2593 28.66H59.9833C59.5913 28.66 59.2713 28.752 59.0233 28.936C58.7753 29.12 58.6193 29.364 58.5553 29.668H57.5473C57.6513 29.044 57.9193 28.568 58.3513 28.24C58.7833 27.912 59.3393 27.748 60.0193 27.748H60.1873C60.9953 27.748 61.6033 27.96 62.0113 28.384C62.4193 28.8 62.6233 29.388 62.6233 30.148V32.356C62.6233 32.636 62.6673 32.836 62.7553 32.956C62.8433 33.068 62.9873 33.124 63.1873 33.124H63.4873V34H62.9833C62.6953 34 62.4593 33.94 62.2753 33.82C62.0993 33.692 61.9713 33.52 61.8913 33.304C61.7233 33.584 61.4913 33.796 61.1953 33.94C60.9073 34.084 60.5793 34.156 60.2113 34.156H59.5393ZM60.1033 33.268C60.5593 33.268 60.9313 33.14 61.2193 32.884C61.5073 32.628 61.6513 32.268 61.6513 31.804V31.144H59.6833C59.2593 31.144 58.9313 31.244 58.6993 31.444C58.4673 31.636 58.3513 31.888 58.3513 32.2C58.3513 32.512 58.4673 32.768 58.6993 32.968C58.9313 33.168 59.2593 33.268 59.6833 33.268H60.1033ZM65.6044 26.356V27.892H67.6204V28.816H65.6044V31.588C65.6044 32.084 65.7484 32.456 66.0364 32.704C66.3324 32.944 66.7164 33.064 67.1884 33.064H67.7884V34H67.0444C66.3004 34 65.7084 33.8 65.2684 33.4C64.8284 32.992 64.6084 32.416 64.6084 31.672V26.356H65.6044ZM69.1642 27.94C69.1642 27.46 69.2682 27.036 69.4762 26.668C69.6922 26.3 69.9922 26.016 70.3762 25.816C70.7602 25.608 71.1962 25.504 71.6842 25.504H72.4642V26.428H71.6842C71.2042 26.428 70.8282 26.568 70.5562 26.848C70.2922 27.12 70.1602 27.508 70.1602 28.012V28.24H72.2482V29.152H70.1602V34H69.1642V27.94ZM75.8479 34.156C75.0559 34.156 74.4359 33.932 73.9879 33.484C73.5399 33.036 73.3159 32.42 73.3159 31.636V30.268C73.3159 29.476 73.5399 28.86 73.9879 28.42C74.4359 27.972 75.0559 27.748 75.8479 27.748H76.2439C77.0359 27.748 77.6519 27.972 78.0919 28.42C78.5399 28.868 78.7639 29.484 78.7639 30.268V31.636C78.7639 32.42 78.5399 33.036 78.0919 33.484C77.6519 33.932 77.0359 34.156 76.2439 34.156H75.8479ZM76.2199 33.184C76.6999 33.184 77.0759 33.044 77.3479 32.764C77.6199 32.484 77.7559 32.1 77.7559 31.612V30.28C77.7559 29.792 77.6199 29.408 77.3479 29.128C77.0759 28.848 76.6999 28.708 76.2199 28.708H75.8599C75.3799 28.708 75.0039 28.848 74.7319 29.128C74.4599 29.408 74.3239 29.792 74.3239 30.28V31.612C74.3239 32.1 74.4599 32.484 74.7319 32.764C75.0039 33.044 75.3799 33.184 75.8599 33.184H76.2199ZM83.7898 28.852H82.9138C82.4658 28.852 82.0978 29.004 81.8098 29.308C81.5218 29.604 81.3778 29.984 81.3778 30.448V34H80.3818V30.34C80.3818 29.58 80.6058 28.984 81.0538 28.552C81.5018 28.112 82.1138 27.892 82.8898 27.892H83.7898V28.852ZM84.8545 30.22C84.8545 29.452 85.0625 28.848 85.4785 28.408C85.8945 27.968 86.4745 27.748 87.2185 27.748H87.3985C87.8865 27.748 88.2945 27.844 88.6225 28.036C88.9585 28.228 89.2105 28.484 89.3785 28.804C89.5465 28.484 89.7945 28.228 90.1225 28.036C90.4585 27.844 90.8665 27.748 91.3465 27.748H91.5385C92.2745 27.748 92.8505 27.968 93.2665 28.408C93.6905 28.848 93.9025 29.452 93.9025 30.22V34H92.9065V30.256C92.9065 29.8 92.7745 29.432 92.5105 29.152C92.2545 28.864 91.9105 28.72 91.4785 28.72H91.2985C90.8665 28.72 90.5185 28.864 90.2545 29.152C89.9985 29.432 89.8705 29.8 89.8705 30.256V34H88.8745V30.256C88.8745 29.792 88.7465 29.42 88.4905 29.14C88.2345 28.86 87.8905 28.72 87.4585 28.72H87.2665C86.8345 28.72 86.4905 28.86 86.2345 29.14C85.9785 29.42 85.8505 29.792 85.8505 30.256V34H84.8545V30.22Z" fill="white"/>
</svg>
