<svg width="278" height="26" viewBox="0 0 278 26" fill="none" xmlns="http://www.w3.org/2000/svg">
<path d="M135.202 20.6765H132.091V0.5H138.283V15.1361H154.519V6.0404H138.283V0.5H154.519L160 6.0404V15.1361L154.519 20.6765H135.202Z" fill="white"/>
<path d="M104.131 0.5H113.583V6.0404H109.583L104.131 0.5ZM119.034 15.1361H128.485L124.871 20.6765H104.131V15.1361H113.583V6.0404V0.5L119.034 6.0404V15.1361Z" fill="#C6FF00"/>
<path d="M102.631 6.0404L102.66 20.6765H83.2245L77.773 15.1361V0.5H97.2088L102.631 6.0404ZM97.2088 15.1361V6.0404H83.2245V15.1361H97.2088Z" fill="#C6FF00"/>
<path d="M74.1662 0.5L68.685 6.0404H51.7083V0.5H74.1662ZM51.7083 6.0404V7.58105H71.8848L67.7666 13.1511H51.7083V23.6097L46.2568 18.0693L46.2568 6.0404L51.7083 0.5V6.0404Z" fill="white"/>
<path d="M48.3921 0.648132H25.4305V6.0799H31.8499V17.931L38.0223 23.6097V6.0799H42.9603L48.3921 0.648132Z" fill="white"/>
<path d="M0 0.648132H23.4553L16.7891 6.0799H5.43176V15.2151H25.1836V20.6469H5.43176L0 15.2151V0.648132Z" fill="white"/>
<path d="M170.89 11.582V13.374H173.242V14.452H170.89V17.686C170.89 18.2647 171.058 18.6987 171.394 18.988C171.739 19.268 172.187 19.408 172.738 19.408H173.438V20.5H172.57C171.702 20.5 171.011 20.2667 170.498 19.8C169.985 19.324 169.728 18.652 169.728 17.784V11.582H170.89ZM178.948 14.494H177.926C177.403 14.494 176.974 14.6713 176.638 15.026C176.302 15.3713 176.134 15.8147 176.134 16.356V20.5H174.972V16.23C174.972 15.3433 175.233 14.648 175.756 14.144C176.279 13.6307 176.993 13.374 177.898 13.374H178.948V14.494ZM182.282 20.682C181.479 20.682 180.849 20.4767 180.392 20.066C179.944 19.646 179.72 19.1 179.72 18.428C179.72 17.7467 179.944 17.2007 180.392 16.79C180.849 16.37 181.479 16.16 182.282 16.16H184.746V15.768C184.746 15.3293 184.601 14.97 184.312 14.69C184.032 14.41 183.635 14.27 183.122 14.27H182.8C182.343 14.27 181.969 14.3773 181.68 14.592C181.391 14.8067 181.209 15.0913 181.134 15.446H179.958C180.079 14.718 180.392 14.1627 180.896 13.78C181.4 13.3973 182.049 13.206 182.842 13.206H183.038C183.981 13.206 184.69 13.4533 185.166 13.948C185.642 14.4333 185.88 15.1193 185.88 16.006V18.582C185.88 18.9087 185.931 19.142 186.034 19.282C186.137 19.4127 186.305 19.478 186.538 19.478H186.888V20.5H186.3C185.964 20.5 185.689 20.43 185.474 20.29C185.269 20.1407 185.119 19.94 185.026 19.688C184.83 20.0147 184.559 20.262 184.214 20.43C183.878 20.598 183.495 20.682 183.066 20.682H182.282ZM182.94 19.646C183.472 19.646 183.906 19.4967 184.242 19.198C184.578 18.8993 184.746 18.4793 184.746 17.938V17.168H182.45C181.955 17.168 181.573 17.2847 181.302 17.518C181.031 17.742 180.896 18.036 180.896 18.4C180.896 18.764 181.031 19.0627 181.302 19.296C181.573 19.5293 181.955 19.646 182.45 19.646H182.94ZM188.251 13.374H189.413V20.5H188.251V13.374ZM188.237 10.84H189.413V12.324H188.237V10.84ZM191.429 16.09C191.429 15.1847 191.681 14.48 192.185 13.976C192.689 13.4627 193.394 13.206 194.299 13.206H194.733C195.639 13.206 196.343 13.4627 196.847 13.976C197.361 14.48 197.617 15.1847 197.617 16.09V20.5H196.455V16.118C196.455 15.5673 196.297 15.1333 195.979 14.816C195.671 14.4987 195.242 14.34 194.691 14.34H194.341C193.8 14.34 193.371 14.4987 193.053 14.816C192.745 15.1333 192.591 15.5673 192.591 16.118V20.5H191.429V16.09ZM199.56 13.374H200.722V20.5H199.56V13.374ZM199.546 10.84H200.722V12.324H199.546V10.84ZM202.738 16.09C202.738 15.1847 202.99 14.48 203.494 13.976C203.998 13.4627 204.702 13.206 205.608 13.206H206.042C206.947 13.206 207.652 13.4627 208.156 13.976C208.669 14.48 208.926 15.1847 208.926 16.09V20.5H207.764V16.118C207.764 15.5673 207.605 15.1333 207.288 14.816C206.98 14.4987 206.55 14.34 206 14.34H205.65C205.108 14.34 204.679 14.4987 204.362 14.816C204.054 15.1333 203.9 15.5673 203.9 16.118V20.5H202.738V16.09ZM212.631 23.538C211.996 23.538 211.473 23.3467 211.063 22.964C210.652 22.5907 210.447 22.1053 210.447 21.508V21.242H211.609V21.452C211.609 21.7413 211.716 21.984 211.931 22.18C212.155 22.376 212.435 22.474 212.771 22.474H214.941C215.295 22.474 215.58 22.3807 215.795 22.194C216.009 22.0073 216.117 21.7647 216.117 21.466C216.117 21.1673 216.009 20.9247 215.795 20.738C215.58 20.5513 215.295 20.458 214.941 20.458H212.197C211.814 20.458 211.501 20.346 211.259 20.122C211.025 19.898 210.909 19.6273 210.909 19.31C210.909 18.9647 211.044 18.6567 211.315 18.386L211.805 17.896C211.021 17.476 210.629 16.7573 210.629 15.74C210.629 14.9467 210.876 14.326 211.371 13.878C211.865 13.43 212.584 13.206 213.527 13.206H214.157C214.931 13.206 215.557 13.36 216.033 13.668L216.915 12.814L217.615 13.542L216.747 14.396C216.961 14.7693 217.069 15.2173 217.069 15.74C217.069 16.5333 216.821 17.154 216.327 17.602C215.832 18.0407 215.109 18.26 214.157 18.26H213.527C213.303 18.26 213.083 18.246 212.869 18.218L212.379 18.694C212.267 18.806 212.211 18.9227 212.211 19.044C212.211 19.1467 212.248 19.2307 212.323 19.296C212.397 19.352 212.505 19.38 212.645 19.38H215.109C215.743 19.38 216.261 19.576 216.663 19.968C217.073 20.36 217.279 20.8593 217.279 21.466C217.279 22.0727 217.073 22.5673 216.663 22.95C216.261 23.342 215.743 23.538 215.109 23.538H212.631ZM214.171 17.196C214.74 17.196 215.169 17.0607 215.459 16.79C215.757 16.5193 215.907 16.1647 215.907 15.726C215.907 15.2873 215.757 14.9373 215.459 14.676C215.16 14.4053 214.731 14.27 214.171 14.27H213.527C212.957 14.27 212.523 14.4053 212.225 14.676C211.935 14.9373 211.791 15.2873 211.791 15.726C211.791 16.174 211.935 16.5333 212.225 16.804C212.523 17.0653 212.957 17.196 213.527 17.196H214.171ZM225.539 20.668C224.764 20.668 224.167 20.43 223.747 19.954L223.761 20.346V23.398H222.599V16.132C222.599 15.208 222.851 14.4893 223.355 13.976C223.868 13.4533 224.596 13.192 225.539 13.192H226.015C226.939 13.192 227.662 13.4533 228.185 13.976C228.708 14.4987 228.969 15.2173 228.969 16.132V17.728C228.969 18.6427 228.717 19.3613 228.213 19.884C227.709 20.4067 227.032 20.668 226.183 20.668H225.539ZM226.001 19.548C226.561 19.548 227 19.3847 227.317 19.058C227.634 18.7313 227.793 18.2833 227.793 17.714V16.16C227.793 15.5907 227.634 15.1427 227.317 14.816C227 14.4893 226.561 14.326 226.001 14.326H225.553C224.984 14.326 224.54 14.4893 224.223 14.816C223.915 15.1333 223.761 15.5813 223.761 16.16V17.714C223.761 18.2833 223.92 18.7313 224.237 19.058C224.554 19.3847 224.993 19.548 225.553 19.548H226.001ZM231.986 10.588V18.162C231.986 18.9833 232.434 19.394 233.33 19.394H233.946V20.5H233.092C232.346 20.5 231.781 20.3087 231.398 19.926C231.016 19.534 230.824 18.9273 230.824 18.106V10.588H231.986ZM237.546 20.682C236.743 20.682 236.113 20.4767 235.656 20.066C235.208 19.646 234.984 19.1 234.984 18.428C234.984 17.7467 235.208 17.2007 235.656 16.79C236.113 16.37 236.743 16.16 237.546 16.16H240.01V15.768C240.01 15.3293 239.865 14.97 239.576 14.69C239.296 14.41 238.899 14.27 238.386 14.27H238.064C237.606 14.27 237.233 14.3773 236.944 14.592C236.654 14.8067 236.472 15.0913 236.398 15.446H235.222C235.343 14.718 235.656 14.1627 236.16 13.78C236.664 13.3973 237.312 13.206 238.106 13.206H238.302C239.244 13.206 239.954 13.4533 240.43 13.948C240.906 14.4333 241.144 15.1193 241.144 16.006V18.582C241.144 18.9087 241.195 19.142 241.298 19.282C241.4 19.4127 241.568 19.478 241.802 19.478H242.152V20.5H241.564C241.228 20.5 240.952 20.43 240.738 20.29C240.532 20.1407 240.383 19.94 240.29 19.688C240.094 20.0147 239.823 20.262 239.478 20.43C239.142 20.598 238.759 20.682 238.33 20.682H237.546ZM238.204 19.646C238.736 19.646 239.17 19.4967 239.506 19.198C239.842 18.8993 240.01 18.4793 240.01 17.938V17.168H237.714C237.219 17.168 236.836 17.2847 236.566 17.518C236.295 17.742 236.16 18.036 236.16 18.4C236.16 18.764 236.295 19.0627 236.566 19.296C236.836 19.5293 237.219 19.646 237.714 19.646H238.204ZM244.538 11.582V13.374H246.89V14.452H244.538V17.686C244.538 18.2647 244.706 18.6987 245.042 18.988C245.388 19.268 245.836 19.408 246.386 19.408H247.086V20.5H246.218C245.35 20.5 244.66 20.2667 244.146 19.8C243.633 19.324 243.376 18.652 243.376 17.784V11.582H244.538ZM248.608 13.43C248.608 12.87 248.73 12.3753 248.972 11.946C249.224 11.5167 249.574 11.1853 250.022 10.952C250.47 10.7093 250.979 10.588 251.548 10.588H252.458V11.666H251.548C250.988 11.666 250.55 11.8293 250.232 12.156C249.924 12.4733 249.77 12.926 249.77 13.514V13.78H252.206V14.844H249.77V20.5H248.608V13.43ZM256.323 20.682C255.399 20.682 254.675 20.4207 254.153 19.898C253.63 19.3753 253.369 18.6567 253.369 17.742V16.146C253.369 15.222 253.63 14.5033 254.153 13.99C254.675 13.4673 255.399 13.206 256.323 13.206H256.785C257.709 13.206 258.427 13.4673 258.941 13.99C259.463 14.5127 259.725 15.2313 259.725 16.146V17.742C259.725 18.6567 259.463 19.3753 258.941 19.898C258.427 20.4207 257.709 20.682 256.785 20.682H256.323ZM256.757 19.548C257.317 19.548 257.755 19.3847 258.073 19.058C258.39 18.7313 258.549 18.2833 258.549 17.714V16.16C258.549 15.5907 258.39 15.1427 258.073 14.816C257.755 14.4893 257.317 14.326 256.757 14.326H256.337C255.777 14.326 255.338 14.4893 255.021 14.816C254.703 15.1427 254.545 15.5907 254.545 16.16V17.714C254.545 18.2833 254.703 18.7313 255.021 19.058C255.338 19.3847 255.777 19.548 256.337 19.548H256.757ZM265.505 14.494H264.483C263.96 14.494 263.531 14.6713 263.195 15.026C262.859 15.3713 262.691 15.8147 262.691 16.356V20.5H261.529V16.23C261.529 15.3433 261.79 14.648 262.313 14.144C262.835 13.6307 263.549 13.374 264.455 13.374H265.505V14.494ZM266.664 16.09C266.664 15.194 266.906 14.4893 267.392 13.976C267.877 13.4627 268.554 13.206 269.422 13.206H269.632C270.201 13.206 270.677 13.318 271.06 13.542C271.452 13.766 271.746 14.0647 271.942 14.438C272.138 14.0647 272.427 13.766 272.81 13.542C273.202 13.318 273.678 13.206 274.238 13.206H274.462C275.32 13.206 275.992 13.4627 276.478 13.976C276.972 14.4893 277.22 15.194 277.22 16.09V20.5H276.058V16.132C276.058 15.6 275.904 15.1707 275.596 14.844C275.297 14.508 274.896 14.34 274.392 14.34H274.182C273.678 14.34 273.272 14.508 272.964 14.844C272.665 15.1707 272.516 15.6 272.516 16.132V20.5H271.354V16.132C271.354 15.5907 271.204 15.1567 270.906 14.83C270.607 14.5033 270.206 14.34 269.702 14.34H269.478C268.974 14.34 268.572 14.5033 268.274 14.83C267.975 15.1567 267.826 15.5907 267.826 16.132V20.5H266.664V16.09Z" fill="white"/>
</svg>
