<svg width="480" height="795" viewBox="0 0 480 795" fill="none" xmlns="http://www.w3.org/2000/svg">
<path d="M297.201 406.177H294.091V386H300.283V400.636H316.519V391.54H300.283V386H316.519L322 391.54V400.636L316.519 406.177H297.201Z" fill="white"/>
<path d="M266.131 386H275.583V391.54H271.583L266.131 386ZM281.034 400.636H290.485L286.871 406.177H266.131V400.636H275.583V391.54V386L281.034 391.54V400.636Z" fill="#C6FF00"/>
<path d="M264.631 391.54L264.66 406.177H245.224L239.773 400.636V386H259.209L264.631 391.54ZM259.209 400.636V391.54H245.224V400.636H259.209Z" fill="#C6FF00"/>
<path d="M236.166 386L230.685 391.54H213.708V386H236.166ZM213.708 391.54V393.081H233.885L229.767 398.651H213.708V409.11L208.257 403.569V391.54L213.708 386V391.54Z" fill="white"/>
<path d="M210.392 386.148H187.431V391.58H193.85V403.431L200.022 409.11V391.58H204.96L210.392 386.148Z" fill="white"/>
<path d="M162 386.148H185.455L178.789 391.58H167.432V400.715H187.184V406.147H167.432L162 400.715V386.148Z" fill="white"/>
<rect x="149.5" y="305.5" width="184" height="184" rx="39.5" stroke="#D9D9D9"/>
<rect x="82.5" y="238.5" width="318" height="318" stroke="#323232"/>
<line x1="345.646" y1="291.646" x2="381.646" y2="255.646" stroke="#323232"/>
<line y1="-0.5" x2="50.9117" y2="-0.5" transform="matrix(-0.707107 -0.707107 -0.707107 0.707107 137 292)" stroke="#323232"/>
<line y1="-0.5" x2="50.9117" y2="-0.5" transform="matrix(0.707107 0.707107 0.707107 -0.707107 346 500)" stroke="#323232"/>
<line x1="137.354" y1="500.354" x2="101.354" y2="536.354" stroke="#323232"/>
<line x1="82" y1="4.37114e-08" x2="82" y2="61" stroke="#323232" stroke-width="2"/>
<line x1="82" y1="632" x2="82" y2="693" stroke="#323232" stroke-width="2"/>
<line x1="404" y1="4.37114e-08" x2="404" y2="61" stroke="#323232" stroke-width="2"/>
<line x1="404" y1="632" x2="404" y2="693" stroke="#323232" stroke-width="2"/>
<line x1="82" y1="102" x2="82" y2="163" stroke="#323232" stroke-width="2"/>
<line x1="82" y1="734" x2="82" y2="795" stroke="#323232" stroke-width="2"/>
<line x1="404" y1="102" x2="404" y2="163" stroke="#323232" stroke-width="2"/>
<line x1="404" y1="734" x2="404" y2="795" stroke="#323232" stroke-width="2"/>
<line x1="61" y1="82" x2="-8.74228e-08" y2="82" stroke="#323232" stroke-width="2"/>
<line x1="61" y1="714" x2="-8.74228e-08" y2="714" stroke="#323232" stroke-width="2"/>
<line x1="383" y1="82" x2="322" y2="82" stroke="#323232" stroke-width="2"/>
<line x1="383" y1="714" x2="322" y2="714" stroke="#323232" stroke-width="2"/>
<line x1="158" y1="82" x2="97" y2="82" stroke="#323232" stroke-width="2"/>
<line x1="158" y1="714" x2="97" y2="714" stroke="#323232" stroke-width="2"/>
<line x1="480" y1="82" x2="419" y2="82" stroke="#323232" stroke-width="2"/>
<line x1="480" y1="714" x2="419" y2="714" stroke="#323232" stroke-width="2"/>
</svg>
